<svg width="296" height="40" viewBox="0 0 296 40" fill="none" xmlns="http://www.w3.org/2000/svg">
<path d="M14.4443 13.04V20H22.3243V13.04H27.3243V32H22.3243V24.6H14.4443V32H9.44434V13.04H14.4443ZM45.6577 24.76L50.0177 26.48C48.6977 30.16 45.6177 32.4 41.1777 32.4C35.2977 32.4 31.1377 28.4 31.1377 22.4C31.1377 17 34.9777 12.64 40.5777 12.64C45.8177 12.64 49.3777 15.96 49.3777 21.16C49.3777 22 49.2977 22.76 49.1377 23.48H36.2577C36.2977 26.36 38.5377 28 41.2577 28C43.5777 28 45.0577 26.92 45.6577 24.76ZM36.2577 20.08H44.3777L44.4177 19.92C44.4177 18 42.8577 16.76 40.5777 16.76C38.4977 16.76 36.7377 18 36.2577 20.08ZM52.1849 36.4V27.48H54.2649C55.0249 25.84 55.5049 24.36 55.7449 23.04C56.0249 21.72 56.1449 20 56.1449 17.8V13.04H70.8649V27.48H73.3449V36.4H68.8249V32H56.6649V36.4H52.1849ZM59.1849 27.48H66.3449V17.24H60.6649V18.4C60.6649 22.24 60.1849 24.72 59.1849 27.48ZM76.7881 32V13.04H87.6681C91.3081 13.04 93.7081 15.04 93.7081 18.04C93.7081 20.08 92.5881 21.6 90.8281 22.36C93.0281 22.84 94.3481 24.36 94.3481 26.76C94.3481 29.92 91.7481 32 87.8681 32H76.7881ZM81.7081 20.36H86.8681C88.1481 20.36 88.9081 19.8 88.9081 18.72C88.9081 17.72 88.1481 17.08 86.8681 17.08H81.7081V20.36ZM81.7081 27.92H87.3881C88.7081 27.92 89.5481 27.2 89.5481 26.12C89.5481 25 88.7081 24.28 87.3881 24.28H81.7081V27.92ZM98.4677 32V13.04H103.467V26.76L110.947 13.04H118.147V32H113.147V18.28L105.707 32H98.4677ZM121.162 32L129.762 22L121.562 13.04H127.762L133.442 19.68V13.04H138.362V19.68L144.042 13.04H150.242L142.042 22L150.642 32H144.602L138.362 24.44V32H133.442V24.44L127.202 32H121.162ZM153.663 32V13.04H158.663V19.76L164.463 13.04H170.783L162.583 22L171.183 32H165.023L158.663 24.36V32H153.663ZM172.941 26.52C172.941 22.48 175.861 20.44 180.341 20.44C181.461 20.44 182.541 20.56 183.581 20.84L185.261 21.24V20.04C185.261 17.92 183.741 16.64 181.381 16.64C179.101 16.64 177.701 17.88 177.261 19.8L172.821 18.6C173.821 14.92 176.821 12.64 181.421 12.64C187.181 12.64 190.141 15.36 190.141 20.32V32H185.461V29.08C184.221 31.28 182.261 32.4 179.181 32.4C175.901 32.4 172.941 30.16 172.941 26.52ZM185.261 25V24.84L184.101 24.48C182.901 24.12 181.901 23.92 181.141 23.92C179.261 23.92 178.141 24.72 178.141 26.2C178.141 27.6 179.181 28.48 181.221 28.48C183.581 28.48 185.261 27.2 185.261 25ZM194.95 26.4H200.55V32H194.95V26.4ZM207.502 25.6V17.24H203.582V13.04H207.502V6.8H212.582V13.04H219.702V17.24H212.582V25.6C212.582 27.04 213.462 27.88 214.742 27.88C216.062 27.88 216.822 27 216.982 25.24L221.702 26.12C221.182 30.08 218.622 32.4 214.622 32.4C210.022 32.4 207.502 29.76 207.502 25.6ZM237.884 24.76L242.244 26.48C240.924 30.16 237.844 32.4 233.404 32.4C227.524 32.4 223.364 28.4 223.364 22.4C223.364 17 227.204 12.64 232.804 12.64C238.044 12.64 241.604 15.96 241.604 21.16C241.604 22 241.524 22.76 241.364 23.48H228.484C228.524 26.36 230.764 28 233.484 28C235.804 28 237.284 26.92 237.884 24.76ZM228.484 20.08H236.604L236.644 19.92C236.644 18 235.084 16.76 232.804 16.76C230.724 16.76 228.964 18 228.484 20.08ZM254.931 27.88C258.011 27.88 259.651 25.92 260.011 23.2L264.731 24.84C263.571 29.84 260.011 32.4 255.051 32.4C248.851 32.4 244.731 28.4 244.731 22.4C244.731 16.68 249.251 12.64 254.531 12.64C259.331 12.64 262.891 15.16 263.731 19.48L259.211 21C258.851 18.6 257.051 17.12 254.651 17.12C252.251 17.12 249.731 19 249.731 22.4C249.731 25.8 252.251 27.88 254.931 27.88ZM273.314 32H268.194V4H273.314V16.44C274.474 14 276.834 12.64 279.594 12.64C283.914 12.64 286.554 15.52 286.554 19.84V32H281.474V21.04C281.474 18.44 280.034 16.88 277.594 16.88C275.154 16.88 273.314 18.92 273.314 22.16V32Z" fill="white"/>
<path d="M10 7.97849L18.7527 4L27.5054 7.97849" stroke="white" stroke-width="4" stroke-linecap="round"/>
</svg>
