<?xml version="1.0" encoding="UTF-8" standalone="no" ?>
<!DOCTYPE svg PUBLIC "-//W3C//DTD SVG 1.1//EN" "http://www.w3.org/Graphics/SVG/1.1/DTD/svg11.dtd">
<svg xmlns="http://www.w3.org/2000/svg" xmlns:xlink="http://www.w3.org/1999/xlink" version="1.1" width="1080" height="300" viewBox="0 0 1080 300" xml:space="preserve">
<desc>Created with Fabric.js 5.2.4</desc>
<defs>
</defs>
<g transform="matrix(1 0 0 1 540 150)" id="b6f0feea-4c56-4290-9a21-4de05861fde6"  >
<rect style="stroke: none; stroke-width: 1; stroke-dasharray: none; stroke-linecap: butt; stroke-dashoffset: 0; stroke-linejoin: miter; stroke-miterlimit: 4; fill: rgb(255,255,255); fill-rule: nonzero; opacity: 1; visibility: hidden;" vector-effect="non-scaling-stroke"  x="-540" y="-150" rx="0" ry="0" width="1080" height="300" />
</g>
<g transform="matrix(Infinity NaN NaN Infinity 0 0)" id="30ed5513-bd19-433d-a126-efd14f7a9794"  >
</g>
<g transform="matrix(5.16 0 0 5.16 540 150)"  >
<g style="opacity: 1;"   >
		<g transform="matrix(1 0 0 1 -33.75 2.76)"  >
<path style="stroke: none; stroke-width: 1; stroke-dasharray: none; stroke-linecap: butt; stroke-dashoffset: 0; stroke-linejoin: miter; stroke-miterlimit: 4; fill: rgb(255,255,255); fill-rule: nonzero; opacity: 1;" vector-effect="non-scaling-stroke"  transform=" translate(-69.75, -16.76)" d="M 10.0107 8.728 L 10.0107 13.6 L 15.5267 13.6 L 15.5267 8.728 L 19.0267 8.728 L 19.0267 22 L 15.5267 22 L 15.5267 16.82 L 10.0107 16.82 L 10.0107 22 L 6.51073 22 L 6.51073 8.728 L 10.0107 8.728 Z M 31.8601 16.932 L 34.9121 18.136 C 33.9881 20.712 31.8321 22.28 28.7241 22.28 C 24.6081 22.28 21.6961 19.48 21.6961 15.28 C 21.6961 11.5 24.3841 8.448 28.3041 8.448 C 31.9721 8.448 34.4641 10.772 34.4641 14.412 C 34.4641 15 34.4081 15.532 34.2961 16.036 L 25.2801 16.036 C 25.3081 18.052 26.8761 19.2 28.7801 19.2 C 30.4041 19.2 31.4401 18.444 31.8601 16.932 Z M 25.2801 13.656 L 30.9641 13.656 L 30.9921 13.544 C 30.9921 12.2 29.9001 11.332 28.3041 11.332 C 26.8481 11.332 25.6161 12.2 25.2801 13.656 Z M 36.4292 25.08 L 36.4292 18.836 L 37.8852 18.836 C 38.4172 17.688 38.7532 16.652 38.9212 15.728 C 39.1172 14.804 39.2012 13.6 39.2012 12.06 L 39.2012 8.728 L 49.5052 8.728 L 49.5052 18.836 L 51.2412 18.836 L 51.2412 25.08 L 48.0772 25.08 L 48.0772 22 L 39.5652 22 L 39.5652 25.08 L 36.4292 25.08 Z M 41.3292 18.836 L 46.3412 18.836 L 46.3412 11.668 L 42.3652 11.668 L 42.3652 12.48 C 42.3652 15.168 42.0292 16.904 41.3292 18.836 Z M 53.6514 22 L 53.6514 8.728 L 61.2674 8.728 C 63.8154 8.728 65.4954 10.128 65.4954 12.228 C 65.4954 13.656 64.7114 14.72 63.4794 15.252 C 65.0194 15.588 65.9434 16.652 65.9434 18.332 C 65.9434 20.544 64.1234 22 61.4074 22 L 53.6514 22 Z M 57.0954 13.852 L 60.7074 13.852 C 61.6034 13.852 62.1354 13.46 62.1354 12.704 C 62.1354 12.004 61.6034 11.556 60.7074 11.556 L 57.0954 11.556 L 57.0954 13.852 Z M 57.0954 19.144 L 61.0714 19.144 C 61.9954 19.144 62.5834 18.64 62.5834 17.884 C 62.5834 17.1 61.9954 16.596 61.0714 16.596 L 57.0954 16.596 L 57.0954 19.144 Z M 68.8271 22 L 68.8271 8.728 L 72.3271 8.728 L 72.3271 18.332 L 77.5631 8.728 L 82.6031 8.728 L 82.6031 22 L 79.1031 22 L 79.1031 12.396 L 73.8951 22 L 68.8271 22 Z M 84.7136 22 L 90.7336 15 L 84.9936 8.728 L 89.3336 8.728 L 93.3096 13.376 L 93.3096 8.728 L 96.7536 8.728 L 96.7536 13.376 L 100.73 8.728 L 105.07 8.728 L 99.3296 15 L 105.35 22 L 101.122 22 L 96.7536 16.708 L 96.7536 22 L 93.3096 22 L 93.3096 16.708 L 88.9416 22 L 84.7136 22 Z M 107.464 22 L 107.464 8.728 L 110.964 8.728 L 110.964 13.432 L 115.024 8.728 L 119.448 8.728 L 113.708 15 L 119.728 22 L 115.416 22 L 110.964 16.652 L 110.964 22 L 107.464 22 Z M 120.959 18.164 C 120.959 15.336 123.003 13.908 126.139 13.908 C 126.923 13.908 127.679 13.992 128.407 14.188 L 129.583 14.468 L 129.583 13.628 C 129.583 12.144 128.519 11.248 126.867 11.248 C 125.271 11.248 124.291 12.116 123.983 13.46 L 120.875 12.62 C 121.575 10.044 123.675 8.448 126.895 8.448 C 130.927 8.448 132.999 10.352 132.999 13.824 L 132.999 22 L 129.723 22 L 129.723 19.956 C 128.855 21.496 127.483 22.28 125.327 22.28 C 123.031 22.28 120.959 20.712 120.959 18.164 Z M 129.583 17.1 L 129.583 16.988 L 128.771 16.736 C 127.931 16.484 127.231 16.344 126.699 16.344 C 125.383 16.344 124.599 16.904 124.599 17.94 C 124.599 18.92 125.327 19.536 126.755 19.536 C 128.407 19.536 129.583 18.64 129.583 17.1 Z" stroke-linecap="round" />
</g>
		<g transform="matrix(1 0 0 1 -33.75 2.76)"  >
<linearGradient id="SVGID_paint0_linear_55_5_3" gradientUnits="userSpaceOnUse" gradientTransform="matrix(1 0 0 1 0 0)"  x1="216.893" y1="5.6" x2="-19.1351" y2="35.1483">
<stop offset="1%" style="stop-color:rgb(25,25,239);stop-opacity: 0.7"/>
<stop offset="100%" style="stop-color:rgb(88,255,255);stop-opacity: 0.7"/>
</linearGradient>
<path style="stroke: none; stroke-width: 1; stroke-dasharray: none; stroke-linecap: butt; stroke-dashoffset: 0; stroke-linejoin: miter; stroke-miterlimit: 4; fill: url(#SVGID_paint0_linear_55_5_3); fill-rule: nonzero; opacity: 1;" vector-effect="non-scaling-stroke"  transform=" translate(-69.75, -16.76)" d="M 10.0107 8.728 L 10.0107 13.6 L 15.5267 13.6 L 15.5267 8.728 L 19.0267 8.728 L 19.0267 22 L 15.5267 22 L 15.5267 16.82 L 10.0107 16.82 L 10.0107 22 L 6.51073 22 L 6.51073 8.728 L 10.0107 8.728 Z M 31.8601 16.932 L 34.9121 18.136 C 33.9881 20.712 31.8321 22.28 28.7241 22.28 C 24.6081 22.28 21.6961 19.48 21.6961 15.28 C 21.6961 11.5 24.3841 8.448 28.3041 8.448 C 31.9721 8.448 34.4641 10.772 34.4641 14.412 C 34.4641 15 34.4081 15.532 34.2961 16.036 L 25.2801 16.036 C 25.3081 18.052 26.8761 19.2 28.7801 19.2 C 30.4041 19.2 31.4401 18.444 31.8601 16.932 Z M 25.2801 13.656 L 30.9641 13.656 L 30.9921 13.544 C 30.9921 12.2 29.9001 11.332 28.3041 11.332 C 26.8481 11.332 25.6161 12.2 25.2801 13.656 Z M 36.4292 25.08 L 36.4292 18.836 L 37.8852 18.836 C 38.4172 17.688 38.7532 16.652 38.9212 15.728 C 39.1172 14.804 39.2012 13.6 39.2012 12.06 L 39.2012 8.728 L 49.5052 8.728 L 49.5052 18.836 L 51.2412 18.836 L 51.2412 25.08 L 48.0772 25.08 L 48.0772 22 L 39.5652 22 L 39.5652 25.08 L 36.4292 25.08 Z M 41.3292 18.836 L 46.3412 18.836 L 46.3412 11.668 L 42.3652 11.668 L 42.3652 12.48 C 42.3652 15.168 42.0292 16.904 41.3292 18.836 Z M 53.6514 22 L 53.6514 8.728 L 61.2674 8.728 C 63.8154 8.728 65.4954 10.128 65.4954 12.228 C 65.4954 13.656 64.7114 14.72 63.4794 15.252 C 65.0194 15.588 65.9434 16.652 65.9434 18.332 C 65.9434 20.544 64.1234 22 61.4074 22 L 53.6514 22 Z M 57.0954 13.852 L 60.7074 13.852 C 61.6034 13.852 62.1354 13.46 62.1354 12.704 C 62.1354 12.004 61.6034 11.556 60.7074 11.556 L 57.0954 11.556 L 57.0954 13.852 Z M 57.0954 19.144 L 61.0714 19.144 C 61.9954 19.144 62.5834 18.64 62.5834 17.884 C 62.5834 17.1 61.9954 16.596 61.0714 16.596 L 57.0954 16.596 L 57.0954 19.144 Z M 68.8271 22 L 68.8271 8.728 L 72.3271 8.728 L 72.3271 18.332 L 77.5631 8.728 L 82.6031 8.728 L 82.6031 22 L 79.1031 22 L 79.1031 12.396 L 73.8951 22 L 68.8271 22 Z M 84.7136 22 L 90.7336 15 L 84.9936 8.728 L 89.3336 8.728 L 93.3096 13.376 L 93.3096 8.728 L 96.7536 8.728 L 96.7536 13.376 L 100.73 8.728 L 105.07 8.728 L 99.3296 15 L 105.35 22 L 101.122 22 L 96.7536 16.708 L 96.7536 22 L 93.3096 22 L 93.3096 16.708 L 88.9416 22 L 84.7136 22 Z M 107.464 22 L 107.464 8.728 L 110.964 8.728 L 110.964 13.432 L 115.024 8.728 L 119.448 8.728 L 113.708 15 L 119.728 22 L 115.416 22 L 110.964 16.652 L 110.964 22 L 107.464 22 Z M 120.959 18.164 C 120.959 15.336 123.003 13.908 126.139 13.908 C 126.923 13.908 127.679 13.992 128.407 14.188 L 129.583 14.468 L 129.583 13.628 C 129.583 12.144 128.519 11.248 126.867 11.248 C 125.271 11.248 124.291 12.116 123.983 13.46 L 120.875 12.62 C 121.575 10.044 123.675 8.448 126.895 8.448 C 130.927 8.448 132.999 10.352 132.999 13.824 L 132.999 22 L 129.723 22 L 129.723 19.956 C 128.855 21.496 127.483 22.28 125.327 22.28 C 123.031 22.28 120.959 20.712 120.959 18.164 Z M 129.583 17.1 L 129.583 16.988 L 128.771 16.736 C 127.931 16.484 127.231 16.344 126.699 16.344 C 125.383 16.344 124.599 16.904 124.599 17.94 C 124.599 18.92 125.327 19.536 126.755 19.536 C 128.407 19.536 129.583 18.64 129.583 17.1 Z" stroke-linecap="round" />
</g>
		<g transform="matrix(1 0 0 1 64.93 -1.66)"  >
<path style="stroke: none; stroke-width: 1; stroke-dasharray: none; stroke-linecap: butt; stroke-dashoffset: 0; stroke-linejoin: miter; stroke-miterlimit: 4; fill: rgb(255,255,255); fill-rule: nonzero; opacity: 1;" vector-effect="non-scaling-stroke"  transform=" translate(-168.43, -12.34)" d="M 136.365 18.08 L 140.285 18.08 L 140.285 22 L 136.365 22 L 136.365 18.08 Z M 145.152 17.52 L 145.152 11.668 L 142.408 11.668 L 142.408 8.728 L 145.152 8.728 L 145.152 4.36 L 148.708 4.36 L 148.708 8.728 L 153.692 8.728 L 153.692 11.668 L 148.708 11.668 L 148.708 17.52 C 148.708 18.528 149.324 19.116 150.22 19.116 C 151.144 19.116 151.676 18.5 151.788 17.268 L 155.092 17.884 C 154.728 20.656 152.936 22.28 150.136 22.28 C 146.916 22.28 145.152 20.432 145.152 17.52 Z M 166.419 16.932 L 169.471 18.136 C 168.547 20.712 166.391 22.28 163.283 22.28 C 159.167 22.28 156.255 19.48 156.255 15.28 C 156.255 11.5 158.943 8.448 162.863 8.448 C 166.531 8.448 169.023 10.772 169.023 14.412 C 169.023 15 168.967 15.532 168.855 16.036 L 159.839 16.036 C 159.867 18.052 161.435 19.2 163.339 19.2 C 164.963 19.2 165.999 18.444 166.419 16.932 Z M 159.839 13.656 L 165.523 13.656 L 165.551 13.544 C 165.551 12.2 164.459 11.332 162.863 11.332 C 161.407 11.332 160.175 12.2 159.839 13.656 Z M 178.352 19.116 C 180.508 19.116 181.656 17.744 181.908 15.84 L 185.212 16.988 C 184.4 20.488 181.908 22.28 178.436 22.28 C 174.096 22.28 171.212 19.48 171.212 15.28 C 171.212 11.276 174.376 8.448 178.072 8.448 C 181.432 8.448 183.924 10.212 184.512 13.236 L 181.348 14.3 C 181.096 12.62 179.836 11.584 178.156 11.584 C 176.476 11.584 174.712 12.9 174.712 15.28 C 174.712 17.66 176.476 19.116 178.352 19.116 Z M 191.22 22 L 187.636 22 L 187.636 2.4 L 191.22 2.4 L 191.22 11.108 C 192.032 9.4 193.684 8.448 195.616 8.448 C 198.64 8.448 200.488 10.464 200.488 13.488 L 200.488 22 L 196.932 22 L 196.932 14.328 C 196.932 12.508 195.924 11.416 194.216 11.416 C 192.508 11.416 191.22 12.844 191.22 15.112 L 191.22 22 Z" stroke-linecap="round" />
</g>
		<g transform="matrix(1 0 0 1 -91 -9.5)"  >
<path style="stroke: rgb(88,255,255); stroke-width: 2; stroke-dasharray: none; stroke-linecap: round; stroke-dashoffset: 0; stroke-linejoin: miter; stroke-miterlimit: 4; fill: none; fill-rule: nonzero; opacity: 1;" vector-effect="non-scaling-stroke"  transform=" translate(-12.5, -4.5)" d="M 6 6 L 12.5 3 L 19 6" stroke-linecap="round" />
</g>
		<g transform="matrix(1 0 0 1 -91 -9.5)"  >
<linearGradient id="SVGID_paint1_linear_55_5_4" gradientUnits="userSpaceOnUse" gradientTransform="matrix(1 0 0 1 0 0)"  x1="76" y1="-41.5" x2="-2.50931" y2="-10.4282">
<stop offset="0%" style="stop-color:rgb(25,25,239);stop-opacity: 1"/>
<stop offset="100%" style="stop-color:rgb(88,255,255);stop-opacity: 1"/>
</linearGradient>
<path style="stroke: url(#SVGID_paint1_linear_55_5_4); stroke-width: 2; stroke-dasharray: none; stroke-linecap: round; stroke-dashoffset: 0; stroke-linejoin: miter; stroke-miterlimit: 4; fill: none; fill-rule: nonzero; opacity: 1;" vector-effect="non-scaling-stroke"  transform=" translate(-12.5, -4.5)" d="M 6 6 L 12.5 3 L 19 6" stroke-linecap="round" />
</g>
</g>
</g>
</svg>